<svg xmlns:dc="http://purl.org/dc/elements/1.1/" xmlns:cc="http://creativecommons.org/ns#" xmlns:rdf="http://www.w3.org/1999/02/22-rdf-syntax-ns#" xmlns:svg="http://www.w3.org/2000/svg" xmlns="http://www.w3.org/2000/svg" viewBox="0 0 470.39999 163.2" height="163.2" width="470.39999" xml:space="preserve" id="svg2"><metadata></metadata><defs id="defs6"><clipPath id="clipPath38" clipPathUnits="userSpaceOnUse"><path id="path36" d="M 0,122.4 H 352.8 V 0 H 0 Z"></path></clipPath></defs><g transform="matrix(1.3333333,0,0,-1.3333333,0,163.2)" id="g10"><g transform="translate(67.2867,110.6922)" id="g12"><path id="path14" style="fill:#658aa9;fill-opacity:1;fill-rule:nonzero;stroke:none" d="M 0,0 -7.793,4.499 -15.586,0 l -7.793,-4.499 -7.793,-4.5 -7.793,-4.499 -7.793,-4.499 -7.793,-4.499 v -8.999 -8.999 -8.998 -8.999 -8.998 -8.999 l 7.793,-4.499 7.793,-4.499 v 8.998 8.999 8.998 8.999 8.998 8.999 l 7.793,4.499 7.793,4.5 7.793,4.499 7.793,4.499 7.793,4.499 7.793,4.5 z"></path></g><g transform="translate(98.4587,38.7036)" id="g16"><path id="path18" style="fill:#253751;fill-opacity:1;fill-rule:nonzero;stroke:none" d="M 0,0 -7.793,4.499 -15.586,0 l -7.793,-4.499 -7.793,-4.5 -7.793,-4.499 v 0 -8.998 -8.999 l 7.793,4.499 7.793,4.5 7.793,4.499 7.793,4.499 7.793,4.499 7.793,4.5 z"></path></g><g transform="translate(28.3216,25.2058)" id="g20"><path id="path22" style="fill:#3f6284;fill-opacity:1;fill-rule:nonzero;stroke:none" d="m 0,0 v 8.999 8.998 8.999 8.998 8.999 8.998 l 7.793,4.5 7.793,4.499 7.793,4.499 7.793,4.5 7.793,4.499 7.793,4.499 7.793,-4.499 7.793,-4.499 -7.793,-4.5 -7.793,-4.499 -7.793,-4.499 -7.793,-4.5 -7.793,-4.499 -7.793,-4.499 V 35.994 26.996 17.997 8.999 0 -8.999 L 7.793,-4.499 0,0"></path></g><g transform="translate(98.4587,65.6993)" id="g24"><path id="path26" style="fill:#162741;fill-opacity:1;fill-rule:nonzero;stroke:none" d="m 0,0 -7.793,-4.499 v -8.999 -8.998 l 7.793,-4.5 7.793,-4.499 v 8.999 8.998 8.999 8.998 z"></path></g><g transform="translate(98.4587,92.6951)" id="g28"><path id="path30" style="fill:#273e61;fill-opacity:1;fill-rule:nonzero;stroke:none" d="M 0,0 -7.793,4.499 -15.586,0 l -7.793,-4.499 -7.793,-4.5 -7.793,-4.499 -7.793,-4.499 -7.793,-4.499 v -8.999 -8.999 -5.254 -3.744 -8.999 -8.998 -5.674 -3.325 l 7.793,-4.499 7.793,-4.5 v 6.225 0 33.514 5.254 8.999 l 7.793,4.499 7.793,4.5 7.793,4.499 7.793,4.499 7.793,4.499 7.793,4.5 z"></path></g><g id="g32"><g clip-path="url(#clipPath38)" id="g34"><g transform="translate(205.1315,65.0601)" id="g40"><path id="path42" style="fill:#1a1a1b;fill-opacity:1;fill-rule:nonzero;stroke:none" d="m 0,0 v -3.859 c 0,-19.879 -16.137,-36.017 -36.016,-36.017 -19.996,0 -36.016,16.138 -36.016,36.017 0,19.879 16.02,36.015 36.016,36.015 13.915,0 26.076,-7.951 32.04,-19.645 L -19.411,4.677 c -3.041,6.08 -9.121,9.939 -16.605,9.939 -10.642,0 -18.593,-7.834 -18.593,-18.475 0,-10.642 7.951,-18.477 18.593,-18.477 6.898,0 12.629,3.391 15.903,8.654 h -16.02 V 0 Z"></path></g><g transform="translate(250.9638,74.5304)" id="g44"><path id="path46" style="fill:#1a1a1b;fill-opacity:1;fill-rule:nonzero;stroke:none" d="M 0,0 C 0,3.626 -3.04,6.198 -7.25,6.198 H -17.658 V -6.431 H -7.25 C -3.04,-6.431 0,-3.741 0,0 m 17.19,0.118 c 0,-12.161 -9.355,-21.049 -21.516,-21.049 H -17.658 V -48.41 h -17.89 v 70.162 h 31.222 c 12.161,0 21.516,-9.707 21.516,-21.634"></path></g><g transform="translate(272.0079,61.2011)" id="g48"><path id="path50" style="fill:#1a1a1b;fill-opacity:1;fill-rule:nonzero;stroke:none" d="m 0,0 c 0,19.879 16.02,36.015 36.016,36.015 13.916,0 26.077,-7.951 32.04,-19.645 L 52.622,8.536 C 49.581,14.616 43.5,18.475 36.016,18.475 25.374,18.475 17.423,10.641 17.423,0 c 0,-10.642 7.951,-18.477 18.593,-18.477 7.484,0 13.565,3.859 16.606,9.94 l 15.434,-7.835 C 62.093,-28.065 49.932,-36.017 36.016,-36.017 16.02,-36.017 0,-19.879 0,0"></path></g></g></g></g></svg>